<?xml version="1.0" encoding="utf-8"?>
<!-- Generator: Adobe Illustrator 21.0.0, SVG Export Plug-In . SVG Version: 6.00 Build 0)  -->
<svg version="1.1" id="Слой_1" xmlns="http://www.w3.org/2000/svg" xmlns:xlink="http://www.w3.org/1999/xlink" x="0px" y="0px"
	 viewBox="0 0 540.7 540.7" style="enable-background:new 0 0 540.7 540.7;" xml:space="preserve">
<style type="text/css">
	.st0{fill:#FFFFFF;}
	.st1{fill:#F6F6F6;}
	.st2{fill:#EFEFEF;}
	.st3{fill:#EEEEEE;}
	.st4{fill:#E9E9E9;}
	.st5{fill:#F8F8F8;}
</style>
<path class="st0" d="M338.8,457c0-54.4,44.3-98.7,98.7-98.7c4.4,0,8.8,0.4,13.2,0.9v-308c0-24.1-19.7-43.9-43.9-43.9H99.7
	C75.6,7.3,55.8,27,55.8,51.2v438.7c0,24.1,19.7,43.9,43.9,43.9h275.9C353.3,515.7,338.8,488.1,338.8,457z"/>
<g>
	<g>
		<path class="st1" d="M338.8,457c0-54.4,44.3-98.7,98.7-98.7c14,0,27.2,3.1,39,7.9V198.6l-25.9-23.7v47.4L294,366.1l-15.4-14
			c-14-13.2-36-13.2-50.4,0l-15.4,14l-157-143.5v-47.8l-25.9,23.7v297.9c0,20.6,16.7,37.3,37.3,37.3h32.5h275.9
			C353.3,515.7,338.8,488.1,338.8,457z"/>
		<g>
			<path class="st2" d="M319,101.6H187.4c-3.5,0-6.6-3.1-6.6-6.6s3.1-6.6,6.6-6.6H319c3.5,0,6.6,3.1,6.6,6.6S322.6,101.6,319,101.6z
				"/>
		</g>
		<g>
			<path class="st2" d="M362.9,145.5H143.6c-3.5,0-6.6-3.1-6.6-6.6s3.1-6.6,6.6-6.6h219.3c3.5,0,6.6,3.1,6.6,6.6
				C369.5,142.4,366.4,145.5,362.9,145.5z"/>
		</g>
		<g>
			<path class="st2" d="M362.9,189.4H143.6c-3.5,0-6.6-3.1-6.6-6.6s3.1-6.6,6.6-6.6h219.3c3.5,0,6.6,3.1,6.6,6.6
				S366.4,189.4,362.9,189.4z"/>
		</g>
		<g>
			<path class="st2" d="M362.9,233.2H143.6c-3.5,0-6.6-3.1-6.6-6.6s3.1-6.6,6.6-6.6h219.3c3.5,0,6.6,3.1,6.6,6.6
				S366.4,233.2,362.9,233.2z"/>
		</g>
		<g>
			<path class="st3" d="M76.9,527.1h-9.7c-1.3,0-2.6,0-3.9-0.4c-0.4,0-0.9,0-0.9,0c-0.9,0-1.8-0.4-2.6-0.4c-0.4,0-0.9,0-0.9-0.4
				c-1.3-0.4-2.2-0.9-3.5-1.3l0,0c-0.9-0.4-2.2-0.9-3.1-1.8c0,0,0,0-0.4,0L233.1,357c5.7-5.3,13.2-7.9,20.6-7.9
				c7.5,0,14.9,3.1,20.6,7.9l71.1,65.4c1.8-4.4,3.5-8.3,5.7-12.7l-47.4-43.4L470,213.5v150c4.4,1.8,8.8,3.5,13.2,5.7V198.6
				c0-0.9,0-1.3-0.4-2.2V196c-0.4-0.9-0.9-1.3-1.3-1.8l0,0l0,0c0,0,0,0-0.4-0.4l-23.7-21.9V51.2c0-27.6-22.8-50.4-50.4-50.4H99.7
				c-27.6,0-50.4,22.8-50.4,50.4v121.1l-23.7,21.9c0,0,0,0-0.4,0.4l0,0l0,0c-0.4,0.4-0.9,1.3-1.3,1.8c0,0,0,0,0,0.4
				s-0.4,1.3-0.4,2.2v297.9c0,12.3,5.3,23.3,13.2,31.1l0,0c0.4,0.4,0.9,0.4,0.9,0.9c0.4,0.4,1.3,1.3,1.8,1.8
				c0.4,0.4,0.9,0.9,1.8,1.3c0.4,0.4,1.3,0.9,1.8,1.3c0.4,0.4,1.3,0.9,1.8,1.3c0.4,0.4,0.9,0.4,1.8,0.9c0.9,0.4,1.3,0.9,2.2,0.9
				c0.4,0.4,0.9,0.4,1.8,0.9c0.9,0.4,1.8,0.4,2.2,0.9c0.4,0,0.9,0.4,1.8,0.4c0.9,0.4,1.8,0.4,2.6,0.4c0.4,0,0.9,0.4,1.8,0.4
				c0.9,0,1.8,0.4,2.6,0.4c0.4,0,0.9,0,1.3,0c1.3,0,3.1,0.4,4.4,0.4h318c-6.1-3.9-11.4-8.3-16.7-13.2L76.9,527.1L76.9,527.1z
				 M457.2,189.8l9.7,8.8l-9.7,8.8V189.8z M62.4,51.2c0-20.6,16.7-37.3,37.3-37.3h307.1c20.6,0,37.3,16.7,37.3,37.3v168.5L294,357.4
				l-11-10.1c-7.9-7.5-18.4-11.4-29.4-11.4s-21.5,3.9-29.4,11.4l-11,10.1L62.4,219.6V51.2z M49.3,189.8v17.5l-9.7-8.8L49.3,189.8z
				 M41.8,514c-3.5-4.8-5.3-11-5.3-17.1V213.5l166.3,152.7L41.8,514z"/>
		</g>
	</g>
</g>
<circle class="st4" cx="440" cy="457.7" r="76.8"/>
<path class="st3" d="M440,374.3c-46.1,0-83.4,37.3-83.4,83.4S394,541,440,541s83.4-37.3,83.4-83.4S486.1,374.3,440,374.3z
	 M440,527.9c-38.6,0-70.2-31.6-70.2-70.2s31.6-70.2,70.2-70.2s70.2,31.6,70.2,70.2S478.6,527.9,440,527.9z"/>
<path class="st5" d="M479.3,486.2L468.5,497c-0.6,0.6-1.6,0.6-2.3,0l-65.5-65.5c-0.6-0.6-0.6-1.6,0-2.3l10.8-10.8
	c0.6-0.6,1.6-0.6,2.3,0l65.5,65.5C479.9,484.6,479.9,485.6,479.3,486.2z"/>
<path class="st0" d="M411.5,496.9l-10.8-10.8c-0.6-0.6-0.6-1.6,0-2.3l65.5-65.5c0.6-0.6,1.6-0.6,2.3,0l10.8,10.8
	c0.6,0.6,0.6,1.6,0,2.3l-65.5,65.5C413.1,497.6,412.1,497.6,411.5,496.9z"/>
</svg>
